<svg xmlns="http://www.w3.org/2000/svg" xmlns:xlink="http://www.w3.org/1999/xlink" width="500" zoomAndPan="magnify" viewBox="0 0 375 374.999991" height="500" preserveAspectRatio="xMidYMid meet" version="1.0"><defs><clipPath id="2d723b4404"><path d="M 155 147 L 220 147 L 220 314.8125 L 155 314.8125 Z M 155 147 " clip-rule="nonzero"/></clipPath><clipPath id="f17b6ec0ae"><path d="M 54 60.5625 L 321 60.5625 L 321 133 L 54 133 Z M 54 60.5625 " clip-rule="nonzero"/></clipPath><clipPath id="3a489c925e"><path d="M 281 168 L 337.5 168 L 337.5 172 L 281 172 Z M 281 168 " clip-rule="nonzero"/></clipPath><clipPath id="be481c4ad3"><path d="M 282 173 L 337.5 173 L 337.5 199 L 282 199 Z M 282 173 " clip-rule="nonzero"/></clipPath><clipPath id="faa2705739"><path d="M 37.5 168 L 94 168 L 94 172 L 37.5 172 Z M 37.5 168 " clip-rule="nonzero"/></clipPath><clipPath id="158074f006"><path d="M 37.5 173 L 93 173 L 93 199 L 37.5 199 Z M 37.5 173 " clip-rule="nonzero"/></clipPath></defs><path fill="#eb8317" d="M 222.433594 124.375 C 218.960938 124.375 215.976562 126.472656 214.683594 129.453125 L 160.335938 129.453125 C 159.042969 126.472656 156.0625 124.375 152.585938 124.375 C 147.917969 124.375 144.132812 128.15625 144.132812 132.824219 C 144.132812 137.492188 147.917969 141.277344 152.585938 141.277344 C 156.0625 141.277344 159.042969 139.179688 160.335938 136.199219 L 214.683594 136.199219 C 215.976562 139.179688 218.960938 141.277344 222.433594 141.277344 C 227.101562 141.277344 230.886719 137.492188 230.886719 132.824219 C 230.886719 128.15625 227.101562 124.375 222.433594 124.375 Z M 222.433594 124.375 " fill-opacity="1" fill-rule="nonzero"/><path fill="#eb8317" d="M 165.621094 139.117188 L 209.378906 139.117188 L 209.378906 143.949219 L 165.621094 143.949219 Z M 165.621094 139.117188 " fill-opacity="1" fill-rule="nonzero"/><g clip-path="url(#2d723b4404)"><path fill="#eb8317" d="M 155.8125 147.34375 L 155.8125 259.527344 L 164.078125 273.859375 L 164.078125 153.613281 L 169.589844 153.613281 L 169.589844 283.402344 L 177.855469 297.734375 L 177.855469 153.613281 L 183.367188 153.613281 L 183.367188 307.253906 L 187.5 314.429688 L 191.632812 307.253906 L 191.632812 153.613281 L 197.144531 153.613281 L 197.144531 297.734375 L 205.410156 283.402344 L 205.410156 153.613281 L 210.921875 153.613281 L 210.921875 273.859375 L 219.1875 259.527344 L 219.1875 147.34375 Z M 155.8125 147.34375 " fill-opacity="1" fill-rule="nonzero"/></g><g clip-path="url(#f17b6ec0ae)"><path fill="#eb8317" d="M 320.332031 116.273438 C 320.332031 109.652344 314.964844 104.265625 308.324219 104.265625 C 301.703125 104.265625 296.3125 109.632812 296.3125 116.273438 C 296.3125 118.144531 296.746094 119.914062 297.507812 121.476562 C 281.859375 121.144531 251.652344 116.808594 205.308594 95.054688 C 203.042969 94.003906 200.722656 93.140625 198.355469 92.523438 C 202.570312 89.273438 205.308594 84.15625 205.308594 78.398438 C 205.308594 68.546875 197.328125 60.570312 187.480469 60.570312 C 177.628906 60.570312 169.652344 68.546875 169.652344 78.398438 C 169.652344 84.15625 172.367188 89.253906 176.601562 92.523438 C 174.238281 93.160156 171.914062 94.003906 169.652344 95.054688 C 123.347656 116.808594 93.121094 121.144531 77.472656 121.476562 C 78.234375 119.890625 78.664062 118.125 78.664062 116.273438 C 78.664062 109.652344 73.296875 104.265625 66.65625 104.265625 C 60.035156 104.265625 54.648438 109.632812 54.648438 116.273438 C 54.648438 116.457031 54.648438 116.621094 54.667969 116.808594 C 54.402344 123.015625 58.328125 129.1875 65.054688 130.953125 C 97.683594 139.550781 168.152344 116.046875 168.152344 116.046875 L 170.433594 132.785156 L 204.566406 132.785156 L 206.847656 116.046875 C 206.847656 116.046875 277.335938 139.570312 309.945312 130.953125 C 316.648438 129.1875 320.597656 123.015625 320.332031 116.808594 C 320.332031 116.621094 320.332031 116.4375 320.332031 116.273438 Z M 320.332031 116.273438 " fill-opacity="1" fill-rule="nonzero"/></g><g clip-path="url(#3a489c925e)"><path fill="#eb8317" d="M 337.457031 171.8125 C 337.480469 171.339844 337.5 170.84375 337.5 170.371094 L 337.5 168.109375 L 281.984375 168.109375 L 281.984375 170.371094 C 281.984375 170.84375 282.003906 171.339844 282.023438 171.8125 Z M 337.457031 171.8125 " fill-opacity="1" fill-rule="nonzero"/></g><path fill="#eb8317" d="M 287.679688 166.875 L 309.742188 123.265625 L 331.804688 166.875 L 335.730469 166.875 L 312.230469 120.386719 C 311.757812 119.460938 310.808594 118.863281 309.761719 118.863281 C 308.714844 118.863281 307.765625 119.441406 307.292969 120.386719 L 283.792969 166.875 Z M 287.679688 166.875 " fill-opacity="1" fill-rule="nonzero"/><g clip-path="url(#be481c4ad3)"><path fill="#eb8317" d="M 282.105469 173.042969 C 283.441406 187.128906 295.308594 198.128906 309.742188 198.128906 C 324.175781 198.128906 336.019531 187.128906 337.375 173.042969 Z M 282.105469 173.042969 " fill-opacity="1" fill-rule="nonzero"/></g><g clip-path="url(#faa2705739)"><path fill="#eb8317" d="M 92.976562 171.8125 C 92.996094 171.339844 93.015625 170.84375 93.015625 170.371094 L 93.015625 168.109375 L 37.5 168.109375 L 37.5 170.371094 C 37.5 170.84375 37.519531 171.339844 37.542969 171.8125 Z M 92.976562 171.8125 " fill-opacity="1" fill-rule="nonzero"/></g><path fill="#eb8317" d="M 43.195312 166.875 L 65.257812 123.265625 L 87.320312 166.875 L 91.25 166.875 L 67.726562 120.386719 C 67.253906 119.460938 66.308594 118.863281 65.257812 118.863281 C 64.210938 118.863281 63.265625 119.441406 62.792969 120.386719 L 39.289062 166.875 Z M 43.195312 166.875 " fill-opacity="1" fill-rule="nonzero"/><g clip-path="url(#158074f006)"><path fill="#eb8317" d="M 37.625 173.042969 C 38.960938 187.128906 50.824219 198.128906 65.257812 198.128906 C 79.691406 198.128906 91.535156 187.128906 92.894531 173.042969 Z M 37.625 173.042969 " fill-opacity="1" fill-rule="nonzero"/></g></svg>